<?xml version="1.0" standalone="no"?>
<!DOCTYPE svg PUBLIC "-//W3C//DTD SVG 20010904//EN"
 "http://www.w3.org/TR/2001/REC-SVG-20010904/DTD/svg10.dtd">
<svg version="1.0" xmlns="http://www.w3.org/2000/svg"
 width="464.000000pt" height="500.000000pt" viewBox="0 0 464.000000 500.000000"
 preserveAspectRatio="xMidYMid meet">

<g transform="translate(0.000000,500.000000) scale(0.100000,-0.100000)"
fill="#000000" stroke="none">
<path d="M4225 4744 c-55 -7 -185 -25 -290 -39 -104 -14 -374 -50 -600 -80
-347 -46 -602 -80 -850 -113 l-50 -7 -3 -66 -3 -66 106 -6 c209 -13 386 -61
580 -157 594 -294 929 -1013 824 -1767 -24 -173 -119 -410 -212 -528 -4 -5
-30 -41 -59 -80 -68 -92 -275 -296 -371 -365 l-76 -55 -1 -392 0 -393 -395 0
-396 0 3 -97 3 -98 100 -7 c249 -16 633 -41 1145 -73 305 -19 585 -37 623 -41
l67 -6 0 2226 0 2226 -22 -1 c-13 -1 -68 -7 -123 -15z"/>
<path d="M330 2515 l0 -2226 58 6 c42 4 1875 145 1889 145 2 0 3 43 3 95 l0
95 -420 0 -420 0 0 180 0 180 -27 5 c-315 66 -433 210 -532 650 -18 77 -43
163 -56 191 -14 28 -66 94 -115 148 -74 79 -90 101 -85 119 13 41 58 101 125
164 37 34 80 86 96 115 29 53 29 54 28 213 -1 115 -7 195 -22 285 -28 157 -28
283 -2 412 40 192 90 291 225 440 243 267 528 463 810 557 100 33 275 71 328
71 63 0 67 5 67 84 l0 71 -323 38 c-177 21 -412 49 -522 62 -644 77 -1056 125
-1079 125 l-26 0 0 -2225z"/>
<path d="M2323 3557 c-47 -65 -91 -156 -109 -228 -38 -146 11 -321 127 -459
l21 -25 30 35 c62 72 118 240 118 352 0 55 -24 147 -56 218 -29 64 -83 150
-93 150 -4 0 -21 -19 -38 -43z"/>
<path d="M1795 3079 c-6 -9 19 -127 37 -174 48 -129 103 -201 206 -268 84 -55
159 -86 224 -94 l51 -6 -7 49 c-30 220 -117 355 -281 435 -82 39 -220 74 -230
58z"/>
<path d="M2865 3075 c-127 -27 -238 -86 -308 -164 -70 -78 -126 -224 -127
-330 l0 -43 47 7 c146 22 323 146 387 274 45 88 92 273 69 270 -5 0 -35 -6
-68 -14z"/>
</g>
</svg>
